<svg width="520" height="140" viewBox="0 0 520 140" fill="none" xmlns="http://www.w3.org/2000/svg">
  <defs>
    <filter id="shadow" x="-20" y="-20" width="560" height="200" color-interpolation-filters="sRGB">
      <feDropShadow dx="0" dy="8" stdDeviation="10" flood-color="#000000" flood-opacity="0.35"/>
    </filter>
    <linearGradient id="bg" x1="0" y1="0" x2="520" y2="140" gradientUnits="userSpaceOnUse">
      <stop stop-color="#1f2937"/>
      <stop offset="1" stop-color="#0b1220"/>
    </linearGradient>
  </defs>

  <g filter="url(#shadow)">
    <rect x="12" y="18" width="496" height="104" rx="16" fill="url(#bg)"/>
    <rect x="12" y="18" width="496" height="104" rx="16" stroke="#111827" stroke-width="1"/>
  </g>

  <!-- top left small label -->
  <text x="34" y="46" fill="#22d3ee" font-size="14" font-weight="700"
        font-family="Segoe UI, Pretendard, Apple SD Gothic Neo, sans-serif">react-study.log</text>

  <!-- top right icons (bookmark dot + heart) -->
  <g transform="translate(474,34)">
    <circle cx="6" cy="6" r="2.2" fill="#22d3ee" opacity="0.9"/>
    <path d="M22 22s-7-4.6-10.2-8.6C8.9 9.5 11 5.6 15 5.1c2-.2 3.6.7 4.7 2 1.1-1.3 2.7-2.2 4.7-2 4 .5 6.1 4.4 3.2 8.3C29 17.4 22 22 22 22Z"
          fill="#22d3ee" opacity="0.9" transform="translate(4,-2) scale(0.55)"/>
  </g>

  <!-- main title line -->
  <text x="34" y="68" fill="#e5e7eb" font-size="15.5" font-weight="700"
        font-family="Segoe UI, Pretendard, Apple SD Gothic Neo, sans-serif">[React] Study Log</text>

  <!-- description -->
  <text x="34" y="88" fill="#cbd5e1" font-size="12.6" font-weight="500"
        font-family="Segoe UI, Pretendard, Apple SD Gothic Neo, sans-serif">hooks/state/컴포넌트 패턴 실습 기록</text>

  <!-- tag pill -->
  <g transform="translate(34,96)">
    <rect x="0" y="0" rx="10" ry="10" width="72" height="22" fill="#111827" stroke="#0f172a" opacity="0.95"/>
    <text x="12" y="15" fill="#e5e7eb" font-size="12" font-weight="700"
          font-family="Segoe UI, Pretendard, Apple SD Gothic Neo, sans-serif">react</text>
  </g>
</svg>